<svg width="206" height="206" viewBox="0 0 206 206" fill="none" xmlns="http://www.w3.org/2000/svg">
<path d="M201.687 65.5265C195.224 36.2021 164.203 11.4823 125.748 4.93881C120.578 3.9694 115.085 3.4847 109.914 3C105.39 3 100.866 3 96.3423 3C92.7877 3.4847 89.5562 3.72705 86.0017 4.21175C33.6523 10.9976 -4.4787 48.3196 4.24619 90.9733C7.47763 106.241 14.91 120.055 24.6043 133.385C43.3466 158.589 67.9056 180.401 95.696 200.274C100.866 203.909 104.744 203.909 109.914 200.274C124.779 189.852 138.351 178.704 150.954 166.829C167.757 150.834 182.622 134.112 192.639 114.966C201.364 99.2133 205.242 82.7334 201.687 65.5265Z" fill="black" stroke="white" stroke-width="4.6363" stroke-miterlimit="10"/>
<path d="M201.687 65.5265C195.224 36.2021 164.203 11.4823 125.748 4.93881C120.578 3.9694 115.085 3.4847 109.914 3C105.39 3 100.866 3 96.3423 3C92.7877 3.4847 89.5562 3.72705 86.0017 4.21175C33.6523 10.9976 -4.4787 48.3196 4.24619 90.9733C7.47763 106.241 14.91 120.055 24.6043 133.385C43.3466 158.589 67.9056 180.401 95.696 200.274C100.866 203.909 104.744 203.909 109.914 200.274C124.779 189.852 138.351 178.704 150.954 166.829C167.757 150.834 182.622 134.112 192.639 114.966C201.364 99.2133 205.242 82.7334 201.687 65.5265Z" fill="#EF305E"/>
<path d="M163.88 75.9478C163.88 79.8255 160.972 82.976 157.417 85.3995C137.706 99.2135 118.317 113.028 98.282 126.842C89.5571 132.9 81.4785 132.658 73.3999 126.357C65.3213 120.298 57.889 113.997 50.1335 107.696C42.7012 101.395 42.3781 95.0936 50.4567 89.5195C70.4916 74.9784 90.8497 60.6797 111.531 46.6234C118.64 41.534 127.042 41.534 133.828 46.6234C142.876 53.4092 151.601 60.6797 160.326 67.7079C162.911 69.8891 164.203 72.7973 163.88 75.9478ZM98.282 111.816C98.6051 109.877 97.6357 108.181 96.02 106.726C89.8802 101.879 84.0636 96.79 77.6008 92.1854C76.3082 91.216 74.0462 90.7313 71.7842 90.2466C69.199 89.7618 66.6139 90.0042 64.9982 91.7007C63.7056 93.1548 65.3213 94.8512 66.937 96.063C74.6925 102.364 82.4479 108.665 90.2034 114.724C91.496 115.936 93.4348 117.148 95.6968 116.178C98.282 115.209 97.9589 113.27 98.282 111.816ZM107.33 64.7997C107.007 66.7385 107.653 68.1926 109.269 69.4044C115.409 74.4937 121.548 79.5831 128.011 84.4301C129.304 85.3995 131.889 85.8842 133.828 86.1266C135.444 86.3689 137.706 86.1266 138.998 85.3995C140.291 84.1878 138.675 82.7337 137.706 81.7643C129.95 75.4631 121.871 69.162 114.116 62.8609C112.823 61.8915 111.208 60.9221 109.269 61.6491C106.684 62.1338 107.653 63.8303 107.33 64.7997ZM105.068 116.42C116.055 108.665 125.749 101.637 135.767 94.6089C137.059 93.6395 138.998 92.6701 138.029 91.216C136.736 89.5195 134.151 89.7618 132.212 90.2466C130.273 90.7313 128.334 91.4583 126.719 92.6701C119.933 97.2747 113.47 102.122 106.684 106.726C103.129 109.15 102.16 111.816 105.068 116.42ZM64.9982 84.6725C71.1379 87.096 75.3388 86.6113 78.5702 84.1878C85.3562 79.5831 91.8191 74.7361 98.6051 69.8891C100.544 68.6773 102.16 67.2232 101.837 65.2844C101.837 64.0726 102.806 62.3762 100.544 61.6491C98.9283 61.1644 97.6357 62.1338 96.6663 62.8609C86.3257 69.8891 75.9851 76.9172 64.9982 84.6725Z" fill="white"/>
<path d="M21.3706 80.7943C22.3401 81.5214 23.6326 81.5214 24.6021 80.7943L97.3095 30.6277C98.279 29.9007 98.279 28.9313 97.3095 28.2042C96.3401 27.4772 95.0475 27.4772 94.0781 28.2042L21.3706 78.3708C20.7243 79.0979 20.4012 80.0673 21.3706 80.7943Z" fill="white"/>
<path d="M108.297 145.988C109.266 146.715 110.559 146.715 111.528 145.988L184.236 95.821C185.205 95.094 185.205 94.1246 184.236 93.3975C183.266 92.6705 181.974 92.6705 181.004 93.3975L108.297 143.564C107.651 144.291 107.651 145.503 108.297 145.988Z" fill="white"/>
</svg>
