<svg width="31" height="30" viewBox="0 0 31 30" fill="none" xmlns="http://www.w3.org/2000/svg">
<path d="M19.6875 14.8201C19.2112 14.5013 18.689 14.2506 18.1375 14.0761C17.7 13.9321 17.2125 13.8001 16.7 13.6681V10.4041C16.8622 10.4556 17.0142 10.5326 17.15 10.6321C17.5181 10.9475 17.8157 11.3312 18.025 11.7601C18.161 12.025 18.3333 12.2712 18.5375 12.4921C18.7376 12.6487 18.9925 12.7259 19.25 12.7081C19.4105 12.7113 19.5697 12.6807 19.7165 12.6185C19.8634 12.5563 19.9943 12.464 20.1 12.3481C20.3218 12.1208 20.4428 11.8195 20.4375 11.5081C20.4339 11.1478 20.3396 10.7937 20.1625 10.4761C19.9557 10.08 19.6613 9.73187 19.3 9.4561C18.8624 9.10472 18.3569 8.83966 17.8125 8.6761C17.4648 8.54937 17.1047 8.45689 16.7375 8.4001V7.8001C16.7392 7.6809 16.7161 7.56258 16.6698 7.452C16.6234 7.34141 16.5546 7.24078 16.4674 7.15593C16.3802 7.07108 16.2762 7.00371 16.1617 6.95774C16.0471 6.91176 15.9242 6.88809 15.8 6.8881C15.6775 6.88651 15.5559 6.9083 15.4422 6.95222C15.3285 6.99613 15.2251 7.06129 15.1378 7.14391C15.0506 7.22652 14.9814 7.32495 14.9341 7.43348C14.8868 7.54201 14.8625 7.65847 14.8625 7.7761V8.4001C14.243 8.44099 13.6328 8.56625 13.05 8.7721C12.3456 9.03404 11.74 9.49413 11.3125 10.0921C10.9155 10.6532 10.7182 11.3225 10.75 12.0001C10.7255 12.6582 10.9228 13.3062 11.3125 13.8481C11.7037 14.3732 12.2347 14.7877 12.85 15.0481C13.4947 15.3192 14.1642 15.5321 14.85 15.6841V19.6561C14.6783 19.6204 14.5108 19.5681 14.35 19.5001C14.0162 19.3421 13.7284 19.1071 13.5125 18.8161C13.2964 18.4933 13.1123 18.1518 12.9625 17.7961C12.8604 17.5027 12.6893 17.2358 12.4625 17.0161C12.2629 16.8469 12.0037 16.7568 11.7375 16.7641C11.5771 16.7578 11.4171 16.7845 11.2684 16.8424C11.1196 16.9004 10.9855 16.9883 10.875 17.1001C10.7611 17.203 10.671 17.3277 10.6107 17.4663C10.5504 17.6048 10.5212 17.754 10.525 17.9041C10.549 18.501 10.7484 19.0793 11.1 19.5721C11.4554 20.1123 11.9341 20.5678 12.5 20.9041C13.199 21.2709 13.9691 21.4956 14.7625 21.5641V22.1521C14.7608 22.2713 14.7839 22.3896 14.8302 22.5002C14.8766 22.6108 14.9454 22.7114 15.0326 22.7963C15.1199 22.8811 15.2238 22.9485 15.3383 22.9945C15.4529 23.0404 15.5758 23.0641 15.7 23.0641C15.8225 23.0657 15.9442 23.0439 16.0578 23C16.1715 22.9561 16.275 22.8909 16.3622 22.8083C16.4494 22.7257 16.5187 22.6272 16.5659 22.5187C16.6132 22.4102 16.6375 22.2937 16.6375 22.1761V21.6001C17.3114 21.5487 17.9731 21.399 18.6 21.1561C19.3421 20.8521 19.9761 20.3477 20.425 19.7041C20.841 19.0815 21.0583 18.3557 21.05 17.6161C21.0966 17.037 20.9936 16.4558 20.75 15.9241C20.4978 15.4764 20.1325 15.0968 19.6875 14.8201ZM14.8 13.2001C14.5332 13.1167 14.274 13.0123 14.025 12.8881C13.7968 12.7637 13.5936 12.6012 13.425 12.4081C13.2967 12.202 13.2358 11.9638 13.25 11.7241C13.2555 11.5109 13.3168 11.3024 13.4282 11.1179C13.5396 10.9334 13.6975 10.7787 13.8875 10.6681C14.1899 10.4803 14.5311 10.3575 14.8875 10.3081V13.1881L14.8 13.2001ZM17.6375 19.2001C17.3394 19.3995 17.0041 19.5421 16.65 19.6201V16.1521L16.9125 16.2241C17.3043 16.3394 17.6606 16.5455 17.95 16.8241C18.0879 16.9604 18.1956 17.1221 18.2665 17.2995C18.3374 17.4769 18.3701 17.6662 18.3625 17.8561C18.3648 18.1199 18.2999 18.3802 18.1736 18.6144C18.0472 18.8486 17.8632 19.0497 17.6375 19.2001ZM15.75 2.1001C13.0923 2.1001 10.4943 2.85667 8.28453 4.27414C6.07475 5.69161 4.35243 7.70632 3.33537 10.0635C2.31832 12.4206 2.05221 15.0144 2.5707 17.5168C3.08919 20.0191 4.36899 22.3177 6.24826 24.1218C8.12753 25.9259 10.5219 27.1545 13.1285 27.6522C15.7351 28.15 18.4369 27.8945 20.8923 26.9181C23.3477 25.9418 25.4464 24.2883 26.9229 22.167C28.3994 20.0456 29.1875 17.5515 29.1875 15.0001C29.1842 11.5798 27.7674 8.30046 25.2481 5.88193C22.7288 3.4634 19.3128 2.10327 15.75 2.1001ZM15.75 26.1001C13.4632 26.1001 11.2277 25.4491 9.32623 24.2294C7.42478 23.0097 5.94279 21.2761 5.06765 19.2479C4.19251 17.2196 3.96353 14.9878 4.40968 12.8346C4.85582 10.6814 5.95704 8.70358 7.57408 7.15121C9.19113 5.59885 11.2514 4.54168 13.4943 4.11338C15.7372 3.68509 18.062 3.9049 20.1748 4.74504C22.2876 5.58517 24.0934 7.00788 25.3639 8.83327C26.6344 10.6587 27.3125 12.8047 27.3125 15.0001C27.3092 17.943 26.0899 20.7645 23.9223 22.8455C21.7546 24.9264 18.8156 26.0969 15.75 26.1001Z" fill="#7E8299"/>
</svg>
