<svg width="31" height="30" viewBox="0 0 31 30" fill="none" xmlns="http://www.w3.org/2000/svg">
<path d="M19.6875 14.82C19.2112 14.5011 18.689 14.2505 18.1375 14.076C17.7 13.932 17.2125 13.8 16.7 13.668V10.404C16.8622 10.4555 17.0142 10.5325 17.15 10.632C17.5181 10.9473 17.8157 11.3311 18.025 11.76C18.161 12.0249 18.3333 12.2711 18.5375 12.492C18.7376 12.6485 18.9925 12.7258 19.25 12.708C19.4105 12.7111 19.5697 12.6805 19.7165 12.6184C19.8634 12.5562 19.9943 12.4639 20.1 12.348C20.3218 12.1206 20.4428 11.8194 20.4375 11.508C20.4339 11.1477 20.3396 10.7936 20.1625 10.476C19.9557 10.0798 19.6613 9.73174 19.3 9.45598C18.8624 9.1046 18.3569 8.83954 17.8125 8.67598C17.4648 8.54924 17.1047 8.45677 16.7375 8.39998V7.79998C16.7392 7.68078 16.7161 7.56246 16.6698 7.45187C16.6234 7.34129 16.5546 7.24066 16.4674 7.15581C16.3802 7.07096 16.2762 7.00359 16.1617 6.95761C16.0471 6.91164 15.9242 6.88796 15.8 6.88798V6.88798C15.6775 6.88639 15.5559 6.90818 15.4422 6.9521C15.3285 6.99601 15.2251 7.06117 15.1378 7.14378C15.0506 7.2264 14.9814 7.32483 14.9341 7.43336C14.8868 7.54188 14.8625 7.65835 14.8625 7.77598V8.39998C14.243 8.44087 13.6328 8.56613 13.05 8.77198C12.3456 9.03392 11.74 9.49401 11.3125 10.092C10.9155 10.6531 10.7182 11.3224 10.75 12C10.7255 12.658 10.9228 13.3061 11.3125 13.848C11.7037 14.3731 12.2347 14.7875 12.85 15.048C13.4947 15.319 14.1642 15.532 14.85 15.684V19.656C14.6783 19.6202 14.5108 19.568 14.35 19.5C14.0162 19.342 13.7285 19.107 13.5125 18.816C13.2964 18.4932 13.1123 18.1517 12.9625 17.796C12.8604 17.5026 12.6893 17.2357 12.4625 17.016C12.2629 16.8468 12.0037 16.7567 11.7375 16.764C11.5771 16.7577 11.4171 16.7844 11.2684 16.8423C11.1196 16.9003 10.9855 16.9881 10.875 17.1C10.7611 17.2028 10.671 17.3276 10.6107 17.4661C10.5504 17.6047 10.5212 17.7539 10.525 17.904C10.549 18.5009 10.7484 19.0791 11.1 19.572C11.4554 20.1122 11.9341 20.5677 12.5 20.904C13.199 21.2708 13.9691 21.4955 14.7625 21.564V22.152C14.7609 22.2712 14.7839 22.3895 14.8302 22.5001C14.8766 22.6107 14.9454 22.7113 15.0326 22.7961C15.1199 22.881 15.2238 22.9484 15.3383 22.9943C15.4529 23.0403 15.5758 23.064 15.7 23.064C15.8225 23.0656 15.9442 23.0438 16.0578 22.9999C16.1715 22.9559 16.275 22.8908 16.3622 22.8082C16.4494 22.7256 16.5187 22.6271 16.5659 22.5186C16.6132 22.4101 16.6375 22.2936 16.6375 22.176V21.6C17.3114 21.5486 17.9731 21.3989 18.6 21.156C19.3421 20.852 19.9761 20.3475 20.425 19.704C20.841 19.0814 21.0583 18.3556 21.05 17.616C21.0966 17.0369 20.9936 16.4557 20.75 15.924C20.4978 15.4763 20.1325 15.0967 19.6875 14.82ZM14.8 13.2C14.5332 13.1166 14.274 13.0122 14.025 12.888C13.7968 12.7636 13.5936 12.601 13.425 12.408C13.2967 12.2019 13.2358 11.9636 13.25 11.724C13.2555 11.5108 13.3168 11.3023 13.4282 11.1178C13.5396 10.9332 13.6975 10.7786 13.8875 10.668C14.1899 10.4802 14.5311 10.3574 14.8875 10.308V13.188L14.8 13.2ZM17.6375 19.2C17.3394 19.3994 17.0041 19.542 16.65 19.62V16.152L16.9125 16.224C17.3043 16.3393 17.6606 16.5454 17.95 16.824C18.0879 16.9602 18.1956 17.122 18.2665 17.2994C18.3374 17.4768 18.3701 17.6661 18.3625 17.856C18.3648 18.1197 18.2999 18.38 18.1736 18.6143C18.0472 18.8485 17.8632 19.0495 17.6375 19.2V19.2ZM15.75 2.09998C13.0923 2.09998 10.4943 2.85655 8.28453 4.27402C6.07475 5.69149 4.35243 7.70619 3.33537 10.0634C2.31832 12.4205 2.05221 15.0143 2.5707 17.5166C3.08919 20.019 4.36899 22.3176 6.24826 24.1217C8.12753 25.9258 10.5219 27.1544 13.1285 27.6521C15.7351 28.1499 18.4369 27.8944 20.8923 26.918C23.3477 25.9417 25.4463 24.2882 26.9229 22.1668C28.3994 20.0454 29.1875 17.5514 29.1875 15C29.1842 11.5797 27.7674 8.30034 25.2481 5.88181C22.7288 3.46328 19.3128 2.10315 15.75 2.09998V2.09998ZM15.75 26.1C13.4632 26.1 11.2277 25.449 9.32623 24.2293C7.42478 23.0096 5.94279 21.276 5.06765 19.2478C4.19251 17.2195 3.96353 14.9877 4.40968 12.8345C4.85582 10.6813 5.95704 8.70345 7.57408 7.15109C9.19113 5.59873 11.2514 4.54155 13.4943 4.11326C15.7372 3.68496 18.062 3.90478 20.1748 4.74491C22.2876 5.58505 24.0934 7.00776 25.3639 8.83315C26.6344 10.6585 27.3125 12.8046 27.3125 15C27.3092 17.9429 26.0899 20.7644 23.9223 22.8454C21.7546 24.9263 18.8156 26.0968 15.75 26.1V26.1Z" fill="#3E97FF"/>
</svg>
