<svg width="37" height="36" viewBox="0 0 37 36" fill="none" xmlns="http://www.w3.org/2000/svg">
<g clip-path="url(#clip0_256_13559)">
<path d="M36.5 9.6238C36.3978 10.1145 36.3247 10.6126 36.186 11.096C35.171 14.7143 31.8923 17.1826 28.1462 17.1679C28.044 17.1679 27.9345 17.1679 27.7738 17.1679C27.7738 17.3144 27.7738 17.4463 27.7738 17.5781C27.7738 21.797 27.7811 26.0158 27.7738 30.2347C27.7738 32.5418 26.2696 34.3949 24.0351 34.8271C23.5604 34.9223 23.0566 34.915 22.5673 34.915C16.7767 34.9223 10.9933 34.9223 5.20264 34.915C2.53002 34.915 0.507302 32.8861 0.5 30.2127C0.5 29.4363 0.5 28.6599 0.5 27.8835C0.5 27.3562 0.689858 27.1657 1.22292 27.1657C2.40588 27.1584 3.58884 27.1657 4.77181 27.1657C4.90325 27.1657 5.02738 27.1657 5.19533 27.1657C5.20264 27.0266 5.21724 26.9021 5.21724 26.7775C5.26105 20.1709 5.30487 13.5717 5.35598 6.96504C5.36329 6.18133 5.51663 6.02752 6.31258 6.02752C10.8911 6.02752 15.4769 6.02752 20.0554 6.03484C20.3329 6.03484 20.4497 5.9616 20.5665 5.69792C21.8809 2.51181 25.0574 0.439 28.4529 0.541542C32.5276 0.658732 35.9669 3.8009 36.4343 7.84397C36.4416 7.92454 36.4781 7.99778 36.5 8.07835C36.5 8.58373 36.5 9.10377 36.5 9.6238ZM6.3929 27.1657C6.59736 27.1657 6.73611 27.1657 6.87485 27.1657C10.2631 27.1657 13.644 27.1657 17.0323 27.1657C17.7333 27.1657 18.4416 27.1584 19.1426 27.1657C19.5515 27.1731 19.7414 27.3635 19.756 27.7737C19.7633 28.1399 19.756 28.4988 19.7633 28.865C19.7706 29.5095 19.7195 30.1687 19.8071 30.7986C20.0627 32.6078 21.6473 33.8529 23.4728 33.7284C25.2181 33.6112 26.5982 32.1317 26.5982 30.3079C26.6128 25.9719 26.5982 21.6358 26.6055 17.2998C26.6055 17.0727 26.5398 16.9848 26.3061 16.9336C24.2688 16.4208 22.6404 15.3149 21.4428 13.579C21.3187 13.4032 21.1945 13.3446 20.9828 13.3446C19.1207 13.3519 17.2586 13.3519 15.3966 13.3446C15.2578 13.3446 15.1118 13.3446 14.9803 13.308C14.7174 13.2347 14.5641 13.0443 14.5641 12.766C14.5568 12.4657 14.7174 12.2752 14.9949 12.1947C15.1191 12.158 15.2505 12.1654 15.3746 12.1654C16.9884 12.1654 18.6095 12.1654 20.2233 12.1654C20.3475 12.1654 20.4716 12.1654 20.6396 12.1654C19.9385 10.5393 19.7998 8.90601 20.0846 7.22872C15.5499 7.22872 11.0517 7.22872 6.52434 7.22872C6.48053 13.872 6.43671 20.5005 6.3929 27.1657ZM28.2193 15.9887C32.1479 15.9887 35.317 12.8099 35.3316 8.86206C35.3462 4.92886 32.1625 1.72077 28.2412 1.72077C24.298 1.71345 21.1069 4.91421 21.1069 8.86206C21.1069 12.8026 24.2907 15.9887 28.2193 15.9887ZM1.67566 28.345C1.67566 29.0408 1.65375 29.722 1.68296 30.4031C1.75598 32.3075 3.21643 33.7357 5.11501 33.743C10.0075 33.7504 14.9073 33.743 19.7998 33.743C19.8801 33.743 19.9604 33.7284 19.9531 33.7284C19.6099 33.1644 19.1791 32.6371 18.9454 32.0291C18.7191 31.4578 18.6533 30.806 18.5949 30.1834C18.5365 29.5828 18.5803 28.9749 18.5803 28.3596C12.9211 28.345 7.32028 28.345 1.67566 28.345Z" fill="#2884EF"/>
<path d="M18.9891 23.584C17.7331 23.584 16.4845 23.584 15.2285 23.584C14.8342 23.584 14.5859 23.3863 14.5567 23.0567C14.5202 22.6831 14.7757 22.4195 15.2139 22.4121C15.9295 22.4048 16.6451 22.4121 17.3607 22.4121C19.106 22.4121 20.8512 22.4121 22.5964 22.4121C22.6987 22.4121 22.8082 22.4048 22.9104 22.4195C23.2609 22.4561 23.4873 22.6978 23.48 23.0127C23.4727 23.3277 23.2317 23.5767 22.8812 23.584C22.2021 23.5987 21.523 23.5914 20.8439 23.5914C20.2305 23.584 19.6098 23.584 18.9891 23.584Z" fill="#2884EF"/>
<path d="M19.0256 17.2997C20.3035 17.2997 21.5814 17.2997 22.8593 17.2997C23.239 17.2997 23.48 17.5341 23.4873 17.8637C23.4946 18.2006 23.2536 18.4277 22.8812 18.457C22.779 18.4643 22.6695 18.457 22.5672 18.457C20.8074 18.457 19.0549 18.457 17.295 18.457C16.5794 18.457 15.8638 18.4716 15.1482 18.4496C14.6516 18.435 14.3668 17.9223 14.6662 17.5634C14.783 17.4169 15.0386 17.3144 15.2358 17.307C16.4991 17.2851 17.7624 17.2997 19.0256 17.2997Z" fill="#2884EF"/>
<path d="M13.2496 12.788C13.2496 13.7841 12.4244 14.5971 11.4021 14.6118C10.3798 14.6191 9.51081 13.7768 9.51811 12.7807C9.52541 11.7919 10.3725 10.9789 11.3875 10.9789C12.4171 10.9789 13.2496 11.7919 13.2496 12.788ZM11.4021 13.4326C11.7818 13.4252 12.0958 13.1249 12.0885 12.7807C12.0812 12.4291 11.7599 12.1508 11.3729 12.1581C10.9859 12.1654 10.6865 12.4584 10.6938 12.81C10.7011 13.1616 11.0151 13.4399 11.4021 13.4326Z" fill="#2884EF"/>
<path d="M13.2495 17.893C13.2422 18.8891 12.4024 19.6948 11.3801 19.6948C10.3651 19.6875 9.51807 18.8671 9.51807 17.8783C9.51807 16.8822 10.387 16.0472 11.4093 16.0619C12.4463 16.0839 13.2568 16.8969 13.2495 17.893ZM11.3655 18.5156C11.7525 18.5229 12.0738 18.2519 12.0885 17.9003C12.1031 17.5561 11.7891 17.2484 11.4093 17.2411C11.0296 17.2338 10.7083 17.5048 10.6937 17.8564C10.6864 18.2153 10.9785 18.5009 11.3655 18.5156Z" fill="#2884EF"/>
<path d="M13.2496 22.9761C13.2423 23.9722 12.4098 24.7779 11.3875 24.7779C10.3725 24.7779 9.52544 23.9576 9.52544 22.9688C9.51813 21.9653 10.3798 21.145 11.4167 21.1523C12.4463 21.167 13.2569 21.9727 13.2496 22.9761ZM11.3802 23.5987C11.7672 23.5987 12.0812 23.3277 12.0885 22.9761C12.0958 22.6319 11.7745 22.3316 11.3948 22.3242C11.0151 22.3169 10.6938 22.6026 10.6938 22.9541C10.6865 23.3057 10.9932 23.5914 11.3802 23.5987Z" fill="#2884EF"/>
<path d="M28.7011 13.1908C28.7011 13.4105 28.7157 13.6156 28.7011 13.8133C28.6792 14.1503 28.4528 14.3627 28.1316 14.3627C27.8103 14.3627 27.5328 14.1429 27.5693 13.8207C27.6277 13.3153 27.4086 13.1102 26.9778 12.8905C26.1819 12.4876 25.7656 11.7698 25.7218 10.8689C25.6999 10.4514 25.9044 10.2024 26.2549 10.1804C26.6127 10.1585 26.8245 10.3709 26.8756 10.7884C26.9632 11.5208 27.4086 11.9896 28.0731 12.0482C28.6792 12.0994 29.2342 11.7259 29.424 11.1399C29.665 10.3855 29.1831 9.59448 28.409 9.46996C28.1242 9.42602 27.8249 9.41869 27.5401 9.34545C26.5543 9.0891 25.8167 8.21749 25.7364 7.23602C25.6415 6.13004 26.1819 5.13392 27.1677 4.72375C27.489 4.59191 27.5839 4.43078 27.562 4.1085C27.5401 3.67636 27.7372 3.43466 28.0804 3.40536C28.4236 3.37606 28.7303 3.61044 28.6938 3.96201C28.65 4.4088 28.8399 4.56262 29.2269 4.73108C30.1032 5.11195 30.5559 5.84439 30.6508 6.79656C30.6946 7.21405 30.4756 7.4997 30.1251 7.53632C29.7746 7.57294 29.5263 7.32391 29.4825 6.8991C29.3948 6.10806 28.8545 5.62465 28.1023 5.66128C27.4305 5.69057 26.8756 6.28385 26.8829 6.96502C26.8902 7.67549 27.4451 8.22482 28.19 8.26876C29.5263 8.34201 30.4537 9.16234 30.6435 10.4441C30.8115 11.594 30.0885 12.6927 28.8764 13.1175C28.8253 13.1468 28.7815 13.1615 28.7011 13.1908Z" fill="#2884EF"/>
</g>
<defs>
<clipPath id="clip0_256_13559">
<rect width="36" height="36" fill="white" transform="translate(0.5)"/>
</clipPath>
</defs>
</svg>
