<svg width="28" height="20" viewBox="0 0 28 20" fill="none" xmlns="http://www.w3.org/2000/svg">
<path d="M22.6624 0H5.8374C4.51132 0 3.23955 0.505713 2.30187 1.40589C1.36419 2.30606 0.837402 3.52696 0.837402 4.8V14.712C0.837402 15.985 1.36419 17.2059 2.30187 18.1061C3.23955 19.0063 4.51132 19.512 5.8374 19.512H22.6624C23.9885 19.512 25.2603 19.0063 26.1979 18.1061C27.1356 17.2059 27.6624 15.985 27.6624 14.712V4.8C27.6624 3.52696 27.1356 2.30606 26.1979 1.40589C25.2603 0.505713 23.9885 0 22.6624 0ZM2.6624 6.276H25.7874V8.88H2.6874L2.6624 6.276ZM5.8374 1.752H22.6624C23.4322 1.75589 24.1739 2.03026 24.7473 2.5233C25.3208 3.01633 25.6863 3.69389 25.7749 4.428H2.7249C2.81348 3.69389 3.17902 3.01633 3.75247 2.5233C4.32593 2.03026 5.0676 1.75589 5.8374 1.752ZM22.6624 17.712H5.8374C5.00197 17.712 4.20076 17.3934 3.61002 16.8263C3.01928 16.2592 2.6874 15.49 2.6874 14.688V10.632H25.8124V14.688C25.8124 15.0851 25.7309 15.4783 25.5726 15.8452C25.4143 16.2121 25.1823 16.5455 24.8898 16.8263C24.5973 17.1071 24.25 17.3298 23.8679 17.4818C23.4857 17.6338 23.0761 17.712 22.6624 17.712ZM16.8624 15.108C16.8592 15.3457 16.7594 15.5728 16.5842 15.741C16.4091 15.9091 16.1725 16.0049 15.9249 16.008H14.0624C13.8138 16.008 13.5753 15.9132 13.3995 15.7444C13.2237 15.5756 13.1249 15.3467 13.1249 15.108C13.1249 14.8693 13.2237 14.6404 13.3995 14.4716C13.5753 14.3028 13.8138 14.208 14.0624 14.208H15.9249C16.1725 14.2111 16.4091 14.3069 16.5842 14.475C16.7594 14.6432 16.8592 14.8703 16.8624 15.108ZM24.3624 15.108C24.3592 15.3457 24.2594 15.5728 24.0842 15.741C23.9091 15.9091 23.6725 16.0049 23.4249 16.008H18.9999C18.7513 16.008 18.5128 15.9132 18.337 15.7444C18.1612 15.5756 18.0624 15.3467 18.0624 15.108C18.0624 14.8693 18.1612 14.6404 18.337 14.4716C18.5128 14.3028 18.7513 14.208 18.9999 14.208H23.4374C23.685 14.2111 23.9216 14.3069 24.0967 14.475C24.2719 14.6432 24.3717 14.8703 24.3749 15.108H24.3624Z" fill="#3E97FF"/>
</svg>
