<svg width="37" height="36" viewBox="0 0 37 36" fill="none" xmlns="http://www.w3.org/2000/svg">
<g clip-path="url(#clip0_256_13547)">
<path d="M27.4999 28.2857H32.6428C33.3247 28.2857 33.9789 28.0147 34.461 27.5325C34.9432 27.0504 35.2142 26.3962 35.2142 25.7143V14.1428C35.2142 13.4608 34.9432 12.8068 34.461 12.3246C33.9789 11.8423 33.3247 11.5714 32.6428 11.5714H4.35707C3.67508 11.5714 3.02104 11.8423 2.5388 12.3246C2.05656 12.8068 1.78564 13.4608 1.78564 14.1428V25.7143C1.78564 26.3962 2.05656 27.0504 2.5388 27.5325C3.02104 28.0147 3.67508 28.2857 4.35707 28.2857H9.49993" stroke="#5E6278" stroke-width="2" stroke-linecap="round" stroke-linejoin="round"/>
<path d="M9.5 24.4286V33.4286C9.5 33.7696 9.63546 34.0966 9.87659 34.3378C10.1177 34.5788 10.4447 34.7143 10.7857 34.7143H26.2143C26.5553 34.7143 26.8823 34.5788 27.1235 34.3378C27.3645 34.0966 27.5 33.7696 27.5 33.4286V24.4286H9.5Z" stroke="#5E6278" stroke-width="2" stroke-linecap="round" stroke-linejoin="round"/>
<path d="M27.5 11.5714V2.57142C27.5 2.23043 27.3645 1.9034 27.1235 1.66228C26.8823 1.42116 26.5553 1.28571 26.2143 1.28571H10.7857C10.4447 1.28571 10.1177 1.42116 9.87659 1.66228C9.63546 1.9034 9.5 2.23043 9.5 2.57142V11.5714" stroke="#5E6278" stroke-width="2" stroke-linecap="round" stroke-linejoin="round"/>
<path d="M28.7858 18H26.2144" stroke="#5E6278" stroke-width="2" stroke-linecap="round" stroke-linejoin="round"/>
</g>
<defs>
<clipPath id="clip0_256_13547">
<rect width="36" height="36" fill="white" transform="translate(0.5)"/>
</clipPath>
</defs>
</svg>
